<svg width="74" height="74" fill="none" xmlns="http://www.w3.org/2000/svg"><circle cx="36.875" cy="36.875" r="36.875" fill="#F7F7F7"/><path fill-rule="evenodd" clip-rule="evenodd" d="m44.078 15.269-22.567 6.72v35.438l22.567-6.63V15.27Z" fill="#A00"/><path fill-rule="evenodd" clip-rule="evenodd" d="M21.51 57.52h30.73V21.99H21.51v35.53Z" fill="#C00"/><path fill-rule="evenodd" clip-rule="evenodd" d="M36.875 32.553a7.199 7.199 0 0 1 7.202 7.202c0 1.16-.274 2.255-.76 3.225a7.206 7.206 0 0 1-12.882.006 7.205 7.205 0 0 1 6.44-10.433Zm0 2.4a4.803 4.803 0 0 0-4.292 6.955 4.802 4.802 0 1 0 4.292-6.954Zm0 2.401a2.4 2.4 0 1 1 0 4.801 2.4 2.4 0 0 1 0-4.8Z" fill="#fff"/></svg>