<svg width="74" height="74" fill="none" xmlns="http://www.w3.org/2000/svg"><path d="M36.875 73.75c20.365 0 36.875-16.51 36.875-36.875C73.75 16.509 57.24 0 36.875 0 16.509 0 0 16.51 0 36.875S16.51 73.75 36.875 73.75Z" fill="#F7F7F7"/><path fill-rule="evenodd" clip-rule="evenodd" d="m37.804 22.183 18.373 18.452L38.33 58.48 19.878 40.11V22.183h17.926Zm-7.555 6.05c-1.17-1.169-3.085-1.15-4.278.043-1.192 1.193-1.212 3.108-.04 4.278 1.167 1.17 3.082 1.151 4.276-.042 1.193-1.194 1.211-3.11.042-4.279Z" fill="#C00"/></svg>