<svg xmlns="http://www.w3.org/2000/svg" viewBox="0 0 104 32" id="LogoTargetCircle"><path fill="#C00" d="M45.55 6.35a2.3 2.3 0 0 1 2.28-2.27 2.3 2.3 0 0 1 2.27 2.27 2.3 2.3 0 0 1-2.27 2.27 2.3 2.3 0 0 1-2.28-2.27m54.5 15.93v.38h-.8v2.14h-.45v-2.14H98v-.38zm1.65 1.97-.7-1.97h-.62v2.52h.42v-1.94l.7 1.94h.37l.7-1.94v1.94h.43v-2.52h-.61zM49.85 10.16h-4.04v14.71h4.04zM29.8 17.73c0-4.7 2.85-7.97 7.52-7.97 3.75 0 6.71 2.05 6.91 5.58h-3.95q-.39-2.52-3-2.53c-2.44 0-3.43 2.39-3.43 4.78s1 4.64 3.36 4.64c1.79 0 2.93-1.03 3.21-3h3.9c-.54 3.88-3.16 6.04-7.09 6.04-4.58 0-7.42-3.27-7.42-7.54zm25.75-7.57v2.74h.06a5.2 5.2 0 0 1 4.7-3.13c.37 0 .65.08.84.13h.03v3.76a7 7 0 0 0-1.45-.14c-2.93 0-3.98 2.02-3.98 4.72v6.63H51.7v-14.7zm5.84 7.57c0-4.7 2.84-7.97 7.51-7.97 3.75 0 6.72 2.05 6.91 5.58h-3.95q-.38-2.52-2.99-2.53c-2.44 0-3.44 2.39-3.44 4.78s1 4.64 3.36 4.64c1.8 0 2.93-1.03 3.22-3h3.9c-.54 3.88-3.16 6.04-7.1 6.04-4.57 0-7.42-3.27-7.42-7.54M81.4 4.56h-4.04v20.32h4.04zm16.13 13.2-.03.74H86.9c.11 2.53 1.28 3.73 3.58 3.73 1.54 0 2.9-.88 3.22-1.91h3.55c-1.08 3.33-3.36 4.95-6.88 4.95-4.67 0-7.52-3.21-7.52-7.74 0-4.44 3.08-7.77 7.52-7.77s7.17 3.64 7.17 8M86.9 15.94h6.57c-.4-2.22-1.37-3.13-3.24-3.13s-3.16 1.2-3.33 3.13M20.01 17.5a4 4 0 1 1-8 0 4 4 0 0 1 8 0"/><path fill="#C00" d="M16 29.52A12 12 0 1 0 16 5.5a12 12 0 0 0 0 24.02m0-4A8 8 0 1 1 16 9.5a8 8 0 0 1 0 16.01"/></svg>