<?xml version="1.0" encoding="UTF-8"?>
<svg xmlns="http://www.w3.org/2000/svg" xmlns:xlink="http://www.w3.org/1999/xlink" width="184px" height="184px" viewBox="0 0 24 24" version="1.1">
  <g id="Icon/Fulfillment/SameDayHub/184px" stroke="none" stroke-width="1" fill="none" fill-rule="evenodd">
    <path fill="#cc0000" d="M 10.285156 5.105469 L 10.285156 1.664062 L 8.726562 3.066406 L 8.726562 5.105469 L 4.898438 5.105469 L 4.898438 22.105469 L 19.433594 22.105469 L 19.433594 5.105469 L 15.605469 5.105469 L 15.605469 3.0625 L 14.046875 1.664062 L 14.046875 5.105469 Z M 10.285156 5.105469"/>
    <path fill="#ffffff" d="M 8.234375 13.617188 C 8.238281 15.792969 10.003906 17.546875 12.175781 17.539062 C 14.351562 17.53125 16.105469 15.769531 16.101562 13.59375 C 16.09375 11.421875 14.328125 9.664062 12.15625 9.671875 C 9.980469 9.675781 8.226562 11.445312 8.234375 13.617188 Z M 9.542969 13.613281 C 9.539062 12.164062 10.707031 10.988281 12.160156 10.984375 C 13.609375 10.980469 14.785156 12.148438 14.789062 13.597656 C 14.792969 15.046875 13.625 16.222656 12.175781 16.226562 C 10.722656 16.230469 9.546875 15.0625 9.542969 13.613281 Z M 13.476562 13.601562 C 13.480469 14.328125 12.894531 14.914062 12.171875 14.917969 C 11.445312 14.917969 10.855469 14.332031 10.855469 13.609375 C 10.851562 12.882812 11.4375 12.296875 12.164062 12.292969 C 12.886719 12.292969 13.476562 12.878906 13.476562 13.601562 Z M 13.476562 13.601562"/>
    <path fill="#720000" d="M 14.046875 3.222656 L 10.285156 3.222656 L 10.285156 1.664062 L 14.046875 1.664062 Z M 4.898438 12.4375 L 6.195312 12.4375 C 6.621094 12.4375 6.953125 12.027344 6.8125 11.578125 C 6.730469 11.308594 6.46875 11.132812 6.1875 11.132812 L 4.898438 11.132812 Z M 4.898438 15.046875 L 6.195312 15.046875 C 6.621094 15.046875 6.953125 14.636719 6.8125 14.1875 C 6.730469 13.917969 6.46875 13.742188 6.1875 13.742188 L 4.898438 13.742188 Z M 6.195312 17.652344 L 4.898438 17.652344 L 4.898438 16.351562 L 6.1875 16.351562 C 6.46875 16.351562 6.730469 16.523438 6.8125 16.796875 C 6.953125 17.242188 6.621094 17.652344 6.195312 17.652344 Z M 6.195312 17.652344"/>
    <path fill="#cc0000" d="M 2.234375 11.132812 L 5.738281 11.132812 L 5.738281 9.828125 L 1.367188 9.828125 Z M 6.761719 13.742188 L 0.871094 13.742188 L 0 12.4375 L 6.761719 12.4375 Z M 7.785156 16.351562 L 3.414062 16.351562 L 2.546875 15.046875 L 7.785156 15.046875 Z M 7.785156 16.351562"/>
  </g>
</svg>
